<svg width="24" height="21" viewBox="0 0 24 21" fill="none" xmlns="http://www.w3.org/2000/svg">
<path d="M18 3C20.661 7.94321 20.6723 13.0481 18 18" stroke="black"/>
<path d="M22 2C23.3305 6.35735 23.3362 14.635 22 19" stroke="black"/>
<path d="M1 13.8235V7.17647C1 6.62419 1.44772 6.17647 2 6.17647H6.6219C6.86555 6.17647 7.10082 6.08751 7.28352 5.92631L12.3384 1.46614C12.9841 0.896403 14 1.35486 14 2.21598V18.784C14 19.6451 12.9841 20.1036 12.3384 19.5339L7.28352 15.0737C7.10082 14.9125 6.86555 14.8235 6.6219 14.8235H2C1.44772 14.8235 1 14.3758 1 13.8235Z" stroke="black"/>
</svg>
