<svg width="16" height="13" viewBox="0 0 16 13" fill="none" xmlns="http://www.w3.org/2000/svg">
<path d="M1 8.17647V4.82353C1 4.27124 1.44772 3.82353 2 3.82353H4.31252C4.55719 3.82353 4.79336 3.73383 4.97635 3.57142L7.33617 1.47682C7.98123 0.904264 9 1.3622 9 2.22471V10.7753C9 11.6378 7.98123 12.0957 7.33617 11.5232L4.97635 9.42858C4.79336 9.26617 4.55719 9.17647 4.31252 9.17647H2C1.44772 9.17647 1 8.72875 1 8.17647Z" stroke="#40514E"/>
<path d="M14 1C15.3305 3.81946 15.3362 9.17558 14 12" stroke="#40514E"/>
<path d="M12 2C13.3305 4.96593 13.3362 8.02886 12 11" stroke="#40514E"/>
</svg>
